<svg xmlns="http://www.w3.org/2000/svg" xmlns:xlink="http://www.w3.org/1999/xlink" version="1.1" x="0px" y="0px" viewBox="0 0 100 100" enable-background="new 0 0 95 95" xml:space="preserve">
	<path fill="white" d="M10.373,56.736V38.263c0-1.5-1.216-2.716-2.716-2.716S4.94,36.763,4.94,38.263v18.473c0,1.501,1.216,2.717,2.717,2.717  S10.373,58.237,10.373,56.736z" />
	<path fill="white" d="M13.794,33.917v28.615c0,1.5,1.216,2.716,2.717,2.716s2.716-1.216,2.716-2.716V33.917c0-1.5-1.216-2.717-2.716-2.717  S13.794,32.417,13.794,33.917z" />
	<path fill="white" d="M22.648,20.877v53.245c0,1.5,1.216,2.717,2.716,2.717s2.717-1.216,2.717-2.717V20.877c0-1.5-1.216-2.717-2.717-2.717  S22.648,19.377,22.648,20.877z" />
	<path fill="white" d="M31.502,35.366v24.268c0,1.5,1.216,2.717,2.717,2.717s2.716-1.216,2.716-2.717V35.366c0-1.5-1.216-2.717-2.716-2.717  S31.502,33.865,31.502,35.366z" />
	<path fill="white" d="M40.356,13.633v67.733c0,1.5,1.216,2.717,2.717,2.717s2.717-1.216,2.717-2.717V13.633c0-1.501-1.216-2.717-2.717-2.717  S40.356,12.132,40.356,13.633z" />
	<path fill="white" d="M49.21,28.122v38.756c0,1.5,1.216,2.717,2.716,2.717s2.717-1.216,2.717-2.717V28.122c0-1.5-1.216-2.717-2.717-2.717  S49.21,26.621,49.21,28.122z" />
	<path fill="white" d="M58.064,33.917v28.615c0,1.5,1.216,2.716,2.717,2.716s2.716-1.216,2.716-2.716V33.917c0-1.5-1.216-2.717-2.716-2.717  S58.064,32.417,58.064,33.917z" />
	<path fill="white" d="M66.918,20.877v54.693c0,1.501,1.216,2.717,2.716,2.717s2.717-1.216,2.717-2.717V20.877c0-1.5-1.216-2.717-2.717-2.717  S66.918,19.377,66.918,20.877z" />
	<path fill="white" d="M75.772,35.366v25.717c0,1.5,1.216,2.717,2.717,2.717s2.716-1.216,2.716-2.717V35.366c0-1.5-1.216-2.717-2.716-2.717  S75.772,33.865,75.772,35.366z" />
	<path fill="white" d="M90.06,55.287V39.712c0-1.5-1.216-2.717-2.717-2.717s-2.716,1.216-2.716,2.717v15.575c0,1.5,1.216,2.717,2.716,2.717  S90.06,56.788,90.06,55.287z" />
</svg>
